<?xml version="1.0" encoding="UTF-8"?>
<svg id="Layer_1" data-name="Layer 1" xmlns="http://www.w3.org/2000/svg" xmlns:xlink="http://www.w3.org/1999/xlink" viewBox="0 0 40 40">
  <defs>
    <style>
      .cls-1 {
        fill: none;
      }

      .cls-2 {
        fill: #4aab3d;
      }

      .cls-3 {
        clip-path: url(#clippath);
      }
    </style>
    <clipPath id="clippath">
      <rect class="cls-1" width="40" height="40"/>
    </clipPath>
  </defs>
  <g class="cls-3">
    <g>
      <path class="cls-2" d="M36.25,30.62h-14.44c-.07-.28-.2-.54-.39-.76l-3.45-4.02c-.06-.07-.13-.12-.21-.16-.08-.04-.17-.06-.26-.06h-6.88v-.62c0-.17-.07-.32-.18-.44-.12-.12-.28-.18-.44-.18H1.25c-.17,0-.32.07-.44.18-.12.12-.18.28-.18.44v13.75c0,.17.07.32.18.44.12.12.28.18.44.18h5c.17,0,.32-.07.44-.18.12-.12.18-.28.18-.44v-.62h3.12c.17,0,.32-.07.44-.18.12-.12.18-.28.18-.44v-.62h4.19l3.59,2.4c.1.07.22.1.34.1.05,0,.09,0,.13-.01l20-4.38c.14-.03.26-.11.35-.22.09-.11.14-.25.14-.39v-.62c0-.83-.33-1.62-.92-2.21s-1.38-.92-2.21-.92ZM5.62,38.12H1.88v-12.5h3.75v12.5ZM9.38,36.88h-2.5v-11.25h2.5v11.25ZM38.12,33.88l-19.25,4.21-3.53-2.35c-.1-.07-.22-.1-.35-.1h-4.38v-8.75h6.59l3.26,3.81c.1.11.15.26.15.41v.79c0,.17-.07.32-.18.44-.12.12-.28.18-.44.18h-.73c-.08,0-.16-.02-.24-.05-.08-.03-.14-.08-.2-.14l-2.76-2.76-.88.88,2.76,2.76c.17.17.38.31.61.41s.47.14.72.14h.73c.5,0,.97-.2,1.33-.55.35-.35.55-.83.55-1.33h14.38c.5,0,.97.2,1.33.55.35.35.55.83.55,1.33v.12ZM38.75,19.38h-1.25V5.62c0-.5-.2-.97-.55-1.33-.35-.35-.83-.55-1.33-.55h-4.41s-.02-.03-.03-.04l-1.77-1.77c-.12-.12-.28-.18-.44-.18s-.32.07-.44.18l-.65.65c-.32-.17-.66-.31-1.01-.42v-.92c0-.17-.07-.32-.18-.44-.12-.12-.28-.18-.44-.18h-2.5c-.17,0-.32.07-.44.18-.12.12-.18.28-.18.44v.92c-.35.11-.69.25-1.01.42l-.65-.65c-.12-.12-.28-.18-.44-.18s-.32.07-.44.18l-1.77,1.77s-.02.03-.03.04h-4.41c-.5,0-.97.2-1.33.55-.35.35-.55.83-.55,1.33v3.75H1.25c-.17,0-.32.07-.44.18-.12.12-.18.28-.18.44v7.5c0,.17.07.32.18.44.12.12.28.18.44.18h11.25v1.25h-1.25c-.17,0-.32.07-.44.18-.12.12-.18.28-.18.44v2.5c0,.5.2.97.55,1.33.35.35.83.55,1.33.55h25c.5,0,.97-.2,1.33-.55.35-.35.55-.83.55-1.33v-2.5c0-.17-.07-.32-.18-.44-.12-.12-.28-.18-.44-.18ZM36.25,5.62v13.75h-1.25V6.88c0-.17-.07-.32-.18-.44-.12-.12-.28-.18-.44-.18h-3.42c-.11-.35-.25-.69-.42-1.01l.24-.24h4.85c.17,0,.32.07.44.18.12.12.18.28.18.44ZM16.88,17.5v-7.5c0-.17-.07-.32-.18-.44-.12-.12-.28-.18-.44-.18v-1.88h1.25v1.88c0,.17.07.32.18.44.12.12.28.18.44.18h.92c.11.35.25.69.42,1.01l-.65.65c-.12.12-.18.28-.18.44s.07.32.18.44l1.77,1.77c.12.12.28.18.44.18s.32-.07.44-.18l.65-.65c.32.17.66.31,1.01.42v.92c0,.17.07.32.18.44.12.12.28.18.44.18h2.5c.17,0,.32-.07.44-.18.12-.12.18-.28.18-.44v-.92c.35-.11.69-.25,1.01-.42l.65.65c.12.12.28.18.44.18s.32-.07.44-.18l1.77-1.77c.12-.12.18-.28.18-.44s-.07-.32-.18-.44l-.65-.65c.17-.32.31-.66.42-1.01h.92c.17,0,.32-.07.44-.18.12-.12.18-.28.18-.44v-1.88h1.25v11.88h-17.5v-1.25c.17,0,.32-.07.44-.18.12-.12.18-.28.18-.44ZM20.13,7.01c.12-.55.34-1.07.64-1.55.08-.12.11-.26.09-.4-.02-.14-.08-.27-.18-.37l-.55-.55.88-.88.55.54c.1.1.23.16.37.18.14.02.28-.02.4-.09.48-.3,1-.52,1.55-.64.14-.03.26-.11.35-.22.09-.11.14-.25.14-.39v-.77h1.25v.77c0,.14.05.28.14.39.09.11.21.19.35.22.55.12,1.07.34,1.55.64.12.08.26.11.4.09.14-.02.27-.08.37-.18l.55-.54.88.88-.55.55c-.1.1-.16.23-.18.37-.02.14.02.28.09.4.3.48.52,1,.64,1.55.03.14.11.26.22.35.11.09.25.14.39.14h.77v1.25h-.77c-.14,0-.28.05-.39.14-.11.09-.19.21-.22.35-.12.55-.34,1.07-.64,1.55-.08.12-.11.26-.09.4.02.14.08.27.18.37l.55.55-.88.88-.55-.55c-.1-.1-.23-.16-.37-.18-.14-.02-.28.02-.4.09-.48.3-1,.52-1.55.64-.14.03-.26.11-.35.22-.09.11-.14.25-.14.39v.77h-1.25v-.77c0-.14-.05-.28-.14-.39-.09-.11-.21-.19-.35-.22-.55-.12-1.07-.34-1.55-.64-.12-.08-.26-.11-.4-.09-.14.02-.27.08-.37.18l-.55.55-.88-.88.55-.55c.1-.1.16-.23.18-.37.02-.14-.02-.28-.09-.4-.3-.48-.52-1-.64-1.55-.03-.14-.11-.26-.22-.35-.11-.09-.25-.14-.39-.14h-.77v-1.25h.77c.14,0,.28-.05.39-.14.11-.09.19-.21.22-.35ZM13.75,5.62c0-.17.07-.32.18-.44.12-.12.28-.18.44-.18h4.85l.24.24c-.17.32-.31.66-.42,1.01h-3.42c-.17,0-.32.07-.44.18-.12.12-.18.28-.18.44v2.5h-1.25v-3.75ZM1.88,10.62h13.75v6.25H1.88v-6.25ZM13.75,18.12h1.25v1.25h-1.25v-1.25ZM38.12,22.5c0,.17-.07.32-.18.44-.12.12-.28.18-.44.18H12.5c-.17,0-.32-.07-.44-.18-.12-.12-.18-.28-.18-.44v-1.88h26.25v1.88Z"/>
      <path class="cls-2" d="M25,11.88c.74,0,1.47-.22,2.08-.63.62-.41,1.1-1,1.38-1.68.28-.69.36-1.44.21-2.17-.14-.73-.5-1.4-1.03-1.92-.52-.52-1.19-.88-1.92-1.03-.73-.14-1.48-.07-2.17.21s-1.27.76-1.68,1.38c-.41.62-.63,1.34-.63,2.08,0,.99.4,1.95,1.1,2.65.7.7,1.66,1.1,2.65,1.1ZM25,5.62c.49,0,.98.15,1.39.42.41.27.73.67.92,1.12.19.46.24.96.14,1.44-.1.48-.33.93-.68,1.28-.35.35-.8.59-1.28.68-.49.1-.99.05-1.44-.14-.46-.19-.85-.51-1.12-.92-.27-.41-.42-.89-.42-1.39,0-.66.26-1.3.73-1.77.47-.47,1.1-.73,1.77-.73ZM5.18,11.43l-1.88,1.88c-.12.12-.18.28-.18.44s.07.32.18.44l1.88,1.88.88-.88-1.43-1.43,1.43-1.43-.88-.88ZM12.32,11.43l-.88.88,1.43,1.43-1.43,1.43.88.88,1.88-1.88c.12-.12.18-.28.18-.44s-.07-.32-.18-.44l-1.88-1.88ZM6.94,15.97l2.5-5,1.12.56-2.5,5-1.12-.56Z"/>
    </g>
  </g>
</svg>