<?xml version="1.0" encoding="UTF-8"?>
<svg id="Layer_1" data-name="Layer 1" xmlns="http://www.w3.org/2000/svg" viewBox="0 0 33.33 37.5">
  <defs>
    <style>
      .cls-1 {
        fill: #4aab3d;
      }
    </style>
  </defs>
  <path class="cls-1" d="M11.21,25.58c0-.13.05-.26.15-.35s.22-.15.35-.15h6.56c.13,0,.26.05.35.15.09.09.15.22.15.35s-.05.26-.15.35-.22.15-.35.15h-6.56c-.13,0-.26-.05-.35-.15-.09-.09-.15-.22-.15-.35ZM11.71,28.49h5.51c.07,0,.13-.01.19-.04.06-.02.12-.06.16-.11.05-.05.08-.1.11-.16.03-.06.04-.13.04-.19s-.01-.13-.04-.19c-.03-.06-.06-.12-.11-.16-.05-.05-.1-.08-.16-.11-.06-.02-.13-.04-.19-.04h-5.51c-.07,0-.13.01-.19.04s-.12.06-.16.11c-.05.05-.08.1-.11.16-.03.06-.04.13-.04.19s.01.13.04.19c.03.06.06.12.11.16.05.05.1.08.16.11s.13.04.19.04ZM10.02,24.44s.09.1.12.16c.03.06.04.12.05.19,0,.07,0,.13-.03.19-.02.06-.06.12-.1.17l-.45.49c.34.61.44,1.33.29,2.01-.16.68-.57,1.28-1.14,1.68-.58.4-1.28.56-1.98.47-.69-.1-1.33-.45-1.77-.99-.45-.54-.68-1.23-.64-1.93.03-.7.33-1.36.82-1.85.5-.49,1.16-.78,1.86-.81.7-.03,1.38.2,1.92.65l.35-.39c.09-.1.21-.16.35-.16s.26.04.36.13h0ZM8.87,26.43l-1.23,1.34c-.08.09-.19.14-.3.16-.12.02-.23-.01-.33-.07l-1.04-.66c-.11-.07-.19-.18-.22-.31-.03-.13,0-.26.07-.37.07-.11.18-.19.31-.22.13-.03.26,0,.37.06l.69.43,1.1-1.2c-.34-.27-.76-.41-1.19-.39-.43.02-.84.19-1.16.49-.32.3-.51.7-.56,1.13-.04.43.07.86.32,1.22.25.35.62.61,1.03.71.42.11.86.06,1.25-.14.39-.19.69-.52.86-.92.16-.4.18-.85.04-1.26h0ZM11.71,18.53h7.58c.13,0,.26-.05.35-.15.09-.09.15-.22.15-.35s-.05-.26-.15-.35c-.09-.09-.22-.15-.35-.15h-7.58c-.13,0-.26.05-.35.15s-.15.22-.15.35.05.26.15.35c.09.09.22.15.35.15ZM11.71,20.94h10.13c.07,0,.13-.01.19-.04.06-.02.12-.06.16-.11.05-.05.08-.1.11-.16.03-.06.04-.13.04-.19s-.01-.13-.04-.19c-.03-.06-.06-.12-.11-.16-.05-.05-.1-.08-.16-.11-.06-.02-.13-.04-.19-.04h-10.13c-.07,0-.13.01-.19.04s-.12.06-.16.11c-.05.05-.08.1-.11.16-.03.06-.04.13-.04.19s.01.13.04.19c.03.06.06.12.11.16.05.05.1.08.16.11s.13.04.19.04ZM10.02,16.9s.09.1.12.16c.03.06.04.12.05.19,0,.07,0,.13-.03.19-.02.06-.06.12-.1.17l-.45.49c.34.61.44,1.33.29,2.01-.16.68-.57,1.28-1.14,1.68-.58.4-1.28.56-1.98.47-.69-.1-1.33-.45-1.77-.99-.45-.54-.68-1.23-.64-1.93.03-.7.33-1.36.82-1.85.5-.49,1.16-.78,1.86-.81.7-.03,1.38.2,1.92.65l.35-.39s.1-.09.16-.12c.06-.03.12-.04.19-.05.07,0,.13,0,.19.03.06.02.12.06.17.1h0ZM8.87,18.89l-1.23,1.34c-.08.09-.19.14-.3.16-.12.02-.23-.01-.33-.07l-1.04-.66c-.11-.07-.19-.18-.22-.31-.03-.13,0-.26.07-.37.07-.11.18-.19.31-.22.13-.03.26,0,.37.06l.69.43,1.1-1.2c-.34-.27-.76-.41-1.19-.39-.43.02-.84.19-1.16.49-.32.3-.51.7-.56,1.13-.04.43.07.86.32,1.22.25.35.62.61,1.03.71.42.11.86.06,1.25-.14.39-.19.69-.52.86-.92.16-.4.18-.85.04-1.26h0ZM11.71,10.99h10.13c.13,0,.26-.05.35-.15.09-.09.15-.22.15-.35s-.05-.26-.15-.35c-.09-.09-.22-.15-.35-.15h-10.13c-.13,0-.26.05-.35.15s-.15.22-.15.35.05.26.15.35.22.15.35.15ZM11.71,13.4h10.13c.07,0,.13-.01.19-.04.06-.02.12-.06.16-.11.05-.05.08-.1.11-.16.03-.06.04-.13.04-.19s-.01-.13-.04-.19c-.03-.06-.06-.12-.11-.16-.05-.05-.1-.08-.16-.11-.06-.02-.13-.04-.19-.04h-10.13c-.07,0-.13.01-.19.04s-.12.06-.16.11c-.05.05-.08.1-.11.16-.03.06-.04.13-.04.19s.01.13.04.19c.03.06.06.12.11.16.05.05.1.08.16.11.06.02.13.04.19.04ZM7.16,9.12c.66,0,1.3.23,1.8.66l.35-.39c.09-.1.21-.15.35-.16.13,0,.26.04.36.13.1.09.15.21.16.34,0,.13-.04.26-.13.36l-.45.49c.3.54.42,1.16.33,1.76-.09.61-.37,1.17-.81,1.6-.44.43-1.01.7-1.62.78-.61.07-1.23-.05-1.76-.36-.53-.31-.94-.79-1.18-1.36-.23-.57-.27-1.2-.11-1.79.16-.59.51-1.12,1-1.49.49-.37,1.09-.58,1.7-.58h0ZM5.81,11.43c.03-.06.08-.1.13-.14s.11-.06.18-.08c.06-.01.13-.02.19,0,.06.01.13.03.18.07l.69.43,1.1-1.2c-.34-.27-.76-.41-1.19-.39-.43.02-.84.19-1.16.49-.32.3-.51.7-.56,1.13-.04.43.07.86.32,1.22.25.35.62.61,1.03.71.42.11.86.06,1.25-.14.39-.19.69-.52.86-.92.16-.4.18-.85.04-1.26l-1.23,1.34c-.08.09-.19.14-.3.16-.12.02-.23-.01-.33-.07l-1.04-.66c-.11-.07-.19-.18-.22-.31-.03-.13,0-.26.06-.38h0ZM33.33,30.15c0,1.36-.38,2.7-1.09,3.86-.72,1.16-1.74,2.1-2.96,2.71-1.22.61-2.58.87-3.94.75-1.36-.12-2.66-.62-3.75-1.43H3.29c-.87,0-1.71-.35-2.32-.96-.62-.62-.96-1.45-.96-2.32V6.38c0-.87.35-1.71.96-2.32.62-.62,1.45-.96,2.32-.96h4.7v-.51c0-.07.01-.13.04-.19.03-.06.06-.12.11-.16.05-.05.1-.08.16-.11.06-.03.13-.04.19-.04h2.49c.12-.59.44-1.12.91-1.5.47-.38,1.05-.59,1.65-.59s1.18.21,1.65.59c.47.38.79.91.91,1.5h2.49c.07,0,.13.01.19.04.06.03.12.06.16.11.05.05.08.1.11.16.03.06.04.13.04.19v.51h4.7c.87,0,1.71.35,2.32.96.62.62.96,1.45.96,2.32v3.3l2.08-1.96c.22-.21.51-.32.82-.31.3,0,.59.14.8.36l1.02,1.08c.21.22.32.51.31.82,0,.3-.14.59-.36.8l-4.67,4.4v8.02c1.74.26,3.33,1.14,4.48,2.47,1.15,1.33,1.78,3.03,1.78,4.79ZM26.07,15.8l-.95.9v6.15c.29-.03.58-.05.87-.05.03,0,.06,0,.09,0v-7ZM7.99,6.55v-.51H3.29c-.09,0-.17.04-.24.1-.06.06-.1.15-.1.24v26.37c0,.09.04.17.1.24.06.06.15.1.24.1h15.96c-.42-.97-.63-2.03-.61-3.09.02-1.06.27-2.1.73-3.06.46-.95,1.13-1.8,1.95-2.47.82-.67,1.78-1.16,2.8-1.43v-5.59l-2.62.62c-.09.02-.17.02-.26,0-.08-.03-.16-.07-.22-.14-.06-.06-.1-.14-.12-.23-.02-.09-.02-.17,0-.26l.41-1.36s0-.01,0-.02l.45-1.31h0c.03-.09.07-.15.13-.21l2.21-2.09v-6.08c0-.09-.04-.17-.1-.24-.06-.06-.15-.1-.24-.1h-4.7v.51c0,.13-.05.26-.15.35-.09.09-.22.15-.35.15h-10.1c-.13,0-.26-.05-.35-.15-.09-.09-.15-.22-.15-.35ZM22.26,16.39l-.16.52,1.08-.26-.74-.79-.18.52ZM22.95,14.94l1.22,1.29,6.89-6.5s.04-.06.04-.1c0-.04-.01-.08-.04-.1l-1.02-1.08s-.06-.04-.1-.04c-.04,0-.08.01-.1.04l-6.89,6.5ZM19.08,4.09v.95h4.7c.35,0,.69.14.94.39.25.25.39.59.39.94v5.14l.95-.9v-4.24c0-.61-.24-1.19-.67-1.62-.43-.43-1.01-.67-1.62-.67h-4.7ZM8.98,6.05h9.1v-2.97h-2.44c-.13,0-.26-.05-.35-.14-.09-.09-.15-.22-.15-.35,0-.42-.18-.83-.48-1.13-.3-.3-.71-.47-1.13-.47s-.83.17-1.13.47c-.3.3-.48.7-.48,1.13,0,.13-.06.26-.15.35s-.22.14-.35.14h-2.44v2.97ZM3.29,35.04h17.21c-.27-.3-.51-.62-.72-.95H3.29c-.35,0-.69-.14-.94-.39-.25-.25-.39-.59-.39-.94V6.38c0-.35.14-.69.39-.94.25-.25.59-.39.94-.39h4.7v-.95H3.29c-.61,0-1.19.24-1.62.67-.43.43-.67,1.01-.67,1.62v26.37c0,.61.24,1.19.67,1.62.43.43,1.01.67,1.62.67ZM32.33,30.15c0-1.26-.37-2.48-1.07-3.53-.7-1.04-1.69-1.86-2.85-2.34-1.16-.48-2.44-.61-3.67-.36-1.23.25-2.36.85-3.25,1.74-.89.89-1.49,2.02-1.74,3.25-.25,1.23-.12,2.51.36,3.67.48,1.16,1.29,2.15,2.34,2.85,1.04.7,2.27,1.07,3.53,1.07,1.68,0,3.3-.67,4.49-1.86,1.19-1.19,1.86-2.8,1.86-4.49ZM28.69,27.73l-3.54,3.86-1.97-1.25c-.11-.07-.25-.09-.37-.06-.13.03-.24.11-.31.22-.07.11-.09.24-.07.37.03.13.11.24.22.31l2.33,1.47c.1.06.22.09.33.07.12-.02.22-.07.3-.16l3.82-4.16s.08-.1.1-.17c.02-.06.03-.13.03-.19,0-.07-.02-.13-.05-.19-.03-.06-.07-.11-.12-.16-.05-.04-.1-.08-.17-.1-.06-.02-.13-.03-.19-.03-.07,0-.13.02-.19.05-.06.03-.11.07-.16.12Z"/>
</svg>

