<?xml version="1.0" encoding="UTF-8"?>
<svg id="Layer_1" data-name="Layer 1" xmlns="http://www.w3.org/2000/svg" xmlns:xlink="http://www.w3.org/1999/xlink" viewBox="0 0 40 40">
  <defs>
    <style>
      .cls-1 {
        fill: none;
      }

      .cls-2 {
        fill: #4aab3d;
      }

      .cls-3 {
        clip-path: url(#clippath);
      }
    </style>
    <clipPath id="clippath">
      <rect class="cls-1" width="40" height="40"/>
    </clipPath>
  </defs>
  <g class="cls-3">
    <g>
      <path class="cls-2" d="M37.14,27.53c.63-.69.99-1.59.99-2.53,0-2.07-1.68-3.75-3.75-3.75s-3.75,1.68-3.75,3.75c0,.97.38,1.86.99,2.53-1.6.14-2.86,1.47-2.86,3.1v3.75c0,.17.07.32.18.44.12.12.28.18.44.18h10c.17,0,.32-.07.44-.18.12-.12.18-.28.18-.44v-3.75c0-1.63-1.26-2.96-2.86-3.1ZM34.38,22.5c1.38,0,2.5,1.12,2.5,2.5s-1.12,2.5-2.5,2.5-2.5-1.12-2.5-2.5,1.12-2.5,2.5-2.5ZM38.75,33.75h-1.25v-1.56c0-.17-.07-.32-.18-.44-.12-.12-.28-.18-.44-.18s-.32.07-.44.18c-.12.12-.18.28-.18.44v1.56h-3.75v-1.56c0-.17-.07-.32-.18-.44-.12-.12-.28-.18-.44-.18s-.32.07-.44.18c-.12.12-.18.28-.18.44v1.56h-1.25v-3.12c0-1.03.84-1.88,1.88-1.88h5c1.03,0,1.88.84,1.88,1.88v3.12ZM8.39,27.53c.63-.69.99-1.59.99-2.53,0-2.07-1.68-3.75-3.75-3.75s-3.75,1.68-3.75,3.75c0,.97.38,1.86.99,2.53-1.6.14-2.86,1.47-2.86,3.1v3.75c0,.17.07.32.18.44.12.12.28.18.44.18h10c.17,0,.32-.07.44-.18.12-.12.18-.28.18-.44v-3.75c0-1.63-1.26-2.96-2.86-3.1ZM5.62,22.5c1.38,0,2.5,1.12,2.5,2.5s-1.12,2.5-2.5,2.5-2.5-1.12-2.5-2.5,1.12-2.5,2.5-2.5ZM10,33.75h-1.25v-1.56c0-.17-.07-.32-.18-.44-.12-.12-.28-.18-.44-.18s-.32.07-.44.18c-.12.12-.18.28-.18.44v1.56h-3.75v-1.56c0-.17-.07-.32-.18-.44-.12-.12-.28-.18-.44-.18s-.32.07-.44.18c-.12.12-.18.28-.18.44v1.56h-1.25v-3.12c0-1.03.84-1.88,1.88-1.88h5c1.03,0,1.88.84,1.88,1.88v3.12ZM23.12,31.25h-.07c.42-.41.75-.89.98-1.43.23-.54.34-1.11.34-1.7,0-2.41-1.96-4.38-4.38-4.38s-4.38,1.96-4.38,4.38c0,1.22.51,2.33,1.32,3.12h-.07c-1.72,0-3.12,1.4-3.12,3.12v5c0,.17.07.32.18.44.12.12.28.18.44.18h11.25c.17,0,.32-.07.44-.18.12-.12.18-.28.18-.44v-5c0-1.72-1.4-3.12-3.12-3.12ZM16.88,28.12c0-1.72,1.4-3.12,3.12-3.12s3.12,1.4,3.12,3.12-1.4,3.12-3.12,3.12-3.12-1.4-3.12-3.12ZM25,38.75h-1.88v-1.88c0-.17-.07-.32-.18-.44-.12-.12-.28-.18-.44-.18s-.32.07-.44.18c-.12.12-.18.28-.18.44v1.88h-3.75v-1.88c0-.17-.07-.32-.18-.44-.12-.12-.28-.18-.44-.18s-.32.07-.44.18c-.12.12-.18.28-.18.44v1.88h-1.88v-4.38c0-1.03.84-1.88,1.88-1.88h6.25c1.03,0,1.88.84,1.88,1.88v4.38ZM20,6.36c-2.01,0-3.64,1.63-3.64,3.64s1.63,3.64,3.64,3.64,3.64-1.63,3.64-3.64-1.63-3.64-3.64-3.64ZM20,12.39c-1.32,0-2.39-1.07-2.39-2.39s1.07-2.39,2.39-2.39,2.39,1.07,2.39,2.39-1.07,2.39-2.39,2.39Z"/>
      <path class="cls-2" d="M26.86,8.04l-1.14-.21c-.04-.12-.09-.23-.14-.34l.66-.96c.14-.21.15-.49,0-.7-.55-.82-1.25-1.52-2.07-2.07-.1-.07-.23-.11-.35-.11-.13,0-.25.04-.35.11l-.96.66c-.11-.05-.23-.1-.34-.14l-.21-1.14c-.02-.12-.08-.24-.17-.33-.09-.09-.2-.15-.32-.17-.97-.19-1.96-.19-2.93,0-.12.02-.24.09-.32.17-.09.09-.15.2-.17.33l-.21,1.14c-.11.04-.23.09-.34.14l-.96-.66c-.1-.07-.22-.11-.35-.11-.12,0-.25.04-.35.11-.82.55-1.52,1.25-2.07,2.07-.07.1-.11.23-.11.35s.04.25.11.35l.66.96c-.05.11-.1.23-.14.34l-1.14.21c-.12.02-.24.08-.33.17-.09.09-.15.2-.17.32-.19.97-.19,1.96,0,2.93.05.25.25.45.5.49l1.14.21c.04.11.09.23.14.34l-.66.96c-.07.1-.11.23-.11.35,0,.13.04.25.11.35.55.82,1.25,1.52,2.07,2.07.1.07.23.11.35.11.13,0,.25-.04.35-.11l.96-.66c.11.05.23.1.34.14l.21,1.14c.02.12.08.24.17.33.09.09.2.15.32.17.97.19,1.96.19,2.93,0,.12-.02.24-.09.32-.17.09-.09.15-.2.17-.33l.21-1.14c.11-.04.23-.09.34-.14l.96.66c.1.07.22.11.35.11s.25-.04.35-.11c.82-.55,1.52-1.25,2.07-2.07.07-.1.11-.23.11-.35,0-.13-.04-.25-.11-.35l-.66-.96c.05-.11.1-.23.14-.34l1.14-.21c.12-.02.24-.08.33-.17.09-.09.15-.2.17-.32.19-.97.19-1.96,0-2.93-.02-.12-.08-.24-.17-.32-.09-.09-.2-.15-.33-.17ZM26.2,10.81l-1.07.2c-.11.02-.22.07-.3.15-.09.08-.15.17-.18.28-.09.29-.21.57-.35.84-.11.21-.09.45.04.65l.62.9c-.33.43-.71.81-1.14,1.14l-.9-.62c-.09-.06-.2-.1-.32-.11-.11,0-.23.02-.33.07-.27.14-.55.26-.84.35-.11.03-.21.1-.28.18-.08.09-.13.19-.15.3l-.2,1.07c-.54.07-1.08.07-1.61,0l-.2-1.07c-.02-.11-.07-.22-.15-.3-.08-.09-.17-.15-.28-.18-.29-.09-.57-.21-.84-.35-.1-.05-.21-.08-.33-.07-.11,0-.22.04-.32.11l-.9.62c-.43-.33-.81-.71-1.14-1.14l.62-.9c.13-.19.15-.44.04-.65-.14-.27-.26-.55-.35-.84-.03-.11-.1-.21-.18-.28-.09-.08-.19-.13-.3-.15l-1.07-.2c-.07-.54-.07-1.08,0-1.61l1.07-.2c.11-.02.22-.07.3-.15.09-.08.15-.17.18-.28.09-.29.21-.57.35-.84.11-.21.09-.45-.04-.65l-.62-.9c.33-.43.71-.81,1.14-1.14l.9.62c.19.13.44.15.65.04.27-.14.55-.26.84-.35.22-.07.39-.26.43-.48l.2-1.07c.54-.07,1.08-.07,1.61,0l.2,1.07c.02.11.07.22.15.3.08.09.17.15.28.18.29.09.57.21.84.35.1.05.21.08.33.07.11,0,.22-.04.32-.11l.9-.62c.43.33.81.71,1.14,1.14l-.62.9c-.06.09-.1.2-.11.32,0,.11.02.23.07.33.14.27.26.55.35.84.07.22.25.39.48.43l1.07.2c.07.54.07,1.08,0,1.61Z"/>
      <path class="cls-2" d="M29.02,22.44c.22-.1.35-.32.35-.56v-1.88h1.25c.69,0,1.25-.56,1.25-1.25V1.25c0-.69-.56-1.25-1.25-1.25H9.38c-.69,0-1.25.56-1.25,1.25v17.5c0,.69.56,1.25,1.25,1.25h1.25v1.88c0,.12.03.23.1.33.06.1.15.18.26.23s.22.07.34.06c.12-.01.23-.06.32-.13l2.95-2.36h3.22l1.69,2.25c.24.32.76.32,1,0l1.69-2.25h3.22l2.95,2.36c.09.07.2.12.32.13.12.01.24,0,.34-.06ZM28.12,19.38v1.2l-2.11-1.69c-.11-.09-.25-.14-.39-.14h-3.75c-.1,0-.19.02-.28.07-.09.04-.16.11-.22.18l-1.38,1.83-1.38-1.83c-.06-.08-.13-.14-.22-.18-.09-.04-.18-.07-.28-.07h-3.75c-.14,0-.28.05-.39.14l-2.11,1.69v-1.2c0-.17-.07-.32-.18-.44-.12-.12-.28-.18-.44-.18h-1.88V1.25h21.25v17.5h-1.88c-.17,0-.32.07-.44.18-.12.12-.18.28-.18.44Z"/>
    </g>
  </g>
</svg>

