<?xml version="1.0" encoding="UTF-8"?>
<svg id="Layer_1" data-name="Layer 1" xmlns="http://www.w3.org/2000/svg" xmlns:xlink="http://www.w3.org/1999/xlink" viewBox="0 0 40 40">
  <defs>
    <style>
      .cls-1 {
        fill: none;
      }

      .cls-2 {
        fill: #4aab3d;
      }

      .cls-3 {
        clip-path: url(#clippath);
      }
    </style>
    <clipPath id="clippath">
      <rect class="cls-1" width="40" height="40"/>
    </clipPath>
  </defs>
  <g class="cls-3">
    <path class="cls-2" d="M39.26,21.64l-5.58-9.66c-.12-.2-.31-.35-.54-.41-.23-.06-.47-.03-.67.09l-1.95,1.13v-7.5s0-.02,0-.03v-.03s-.01-.02-.01-.03v-.03s-.02-.03-.02-.03c0,0,0-.02,0-.02v-.03s-.02-.01-.03-.02l-.02-.03s0-.02-.01-.02l-.02-.03-.02-.02-.02-.02h-.01s-3.78-4.11-3.78-4.11h0s-.02-.03-.02-.03l-.02-.02s-.02-.02-.03-.02c0,0-.01-.01-.02-.01l-.03-.02h-.02s-.04-.03-.04-.03h-.01s-.03-.02-.05-.03h0s-.04-.01-.06-.02c-.02,0-.04,0-.06,0h-15.55c-.31,0-.6.12-.82.34-.22.22-.34.51-.34.82v12.29l-1.95-1.13c-.2-.12-.44-.15-.67-.09-.23.06-.42.21-.54.41L.74,22.93c-.12.2-.15.44-.09.67.06.23.21.42.41.54l4.56,2.63c.72.63,1.34,1.36,1.84,2.17l-1.53,2.66c-.25.44-.36.95-.3,1.45.06.5.27.97.61,1.35.34.37.79.63,1.29.72.5.1,1.01.03,1.47-.18.11.31.28.6.51.84.23.24.5.43.81.56.31.13.64.19.97.19.33,0,.66-.08.96-.22.2.57.6,1.04,1.13,1.32.53.28,1.15.35,1.73.19.25-.07.48-.17.7-.31.19.41.49.76.87,1.01.38.25.83.38,1.28.38.4,0,.8-.1,1.15-.3.35-.19.65-.47.86-.81l2.14,1.23c.46.27.98.39,1.51.35.53-.03,1.03-.22,1.45-.55.42-.32.73-.76.9-1.26.17-.5.19-1.04.05-1.55-.02-.08-.04-.16-.07-.23.08-.01.16-.03.23-.05.34-.09.66-.25.94-.46.28-.21.51-.48.69-.78s.29-.64.33-.99c.05-.35.02-.7-.07-1.04-.02-.08-.04-.15-.07-.23.39-.07.75-.22,1.07-.44.32-.22.59-.52.78-.85.2-.34.31-.72.35-1.11.03-.39-.02-.78-.15-1.15.39-.07.75-.22,1.07-.44.32-.22.59-.52.78-.85.07-.12.13-.24.18-.37.39-.19.74-.5,1.09-.81.24-.22.65-.58.81-.61.11,0,.23-.03.33-.08l4.61-2.66c.2-.12.35-.31.41-.54.06-.23.03-.47-.09-.67ZM26.74,2.85l1.73,1.88h-1.73v-1.88ZM10.73,1.88h14.76v3.48c0,.17.07.32.18.44.12.12.28.18.44.18h3.15v7.53l-1.25.72c-2.43-.1-6.05.29-8.46,1.4-.14.07-.29.12-.44.16-.07.02-.15.04-.25.08-.3.09-.57.24-.82.43-.03-.01-.05-.02-.08-.03-1.54-.53-3.81-1.08-6.03-.76l-1.22-.7V1.88ZM5.76,25.4l-3.75-2.17,5.21-9.02,3.75,2.17-5.21,9.02ZM9.19,32.97l-.22.38c-.07.13-.17.24-.29.33-.12.09-.25.16-.39.19-.14.04-.29.05-.44.03-.15-.02-.29-.07-.42-.14-.13-.07-.24-.17-.33-.29-.09-.12-.16-.25-.19-.39-.04-.14-.05-.29-.03-.44.02-.15.07-.29.14-.42l2.26-3.91c.07-.13.17-.24.29-.33.12-.09.25-.16.39-.19.14-.04.29-.05.44-.03.15.02.29.07.42.14.13.07.24.17.33.29.09.12.16.25.19.39.04.14.05.29.03.44-.02.15-.07.29-.14.42l-2.04,3.53h0ZM12.44,34.34l-.22.38c-.15.26-.4.45-.68.52-.29.08-.6.04-.85-.11-.26-.15-.45-.4-.52-.68-.08-.29-.04-.6.11-.85l2.04-3.53c.15-.26.4-.45.68-.53.29-.08.6-.04.86.11.26.15.45.4.53.68.08.29.04.6-.11.86l-1.82,3.15h0ZM15.47,36.09c-.15.26-.4.45-.68.53-.29.08-.6.04-.86-.11-.26-.15-.45-.4-.53-.68-.08-.29-.04-.6.11-.86l1.82-3.15c.15-.26.39-.45.68-.53.29-.08.6-.04.86.11.26.15.45.39.53.68.08.29.04.6-.11.85l-1.38,2.39-.44.76ZM17.41,37.5c-.26-.15-.45-.4-.52-.68-.08-.29-.04-.59.11-.85l1.38-2.39c.07-.13.17-.24.29-.33.12-.09.25-.16.39-.19.14-.04.29-.05.44-.03.15.02.29.07.42.14.13.07.24.17.33.29.09.12.16.25.19.39.04.14.05.29.03.44-.02.15-.07.29-.14.42l-1.11,1.93-.27.46c-.15.26-.4.45-.69.52-.29.08-.6.03-.86-.12h0ZM24.69,37.42c-.19.33-.5.57-.87.66-.37.1-.75.05-1.08-.14l-2.13-1.23.8-1.4c.22-.38.33-.82.32-1.26l2.44,1.41c.33.19.57.5.67.87.1.37.05.76-.14,1.08h0ZM30.84,26.76c-.19.33-.5.57-.87.66-.37.1-.75.05-1.08-.14l-5.18-2.99c-.07-.04-.15-.07-.23-.09-.08-.01-.17,0-.25.01s-.16.06-.22.11c-.07.05-.12.11-.16.19-.04.07-.07.15-.08.24-.01.08,0,.17.02.25.02.08.06.16.11.22.05.07.12.12.19.16l5.18,2.98c.32.19.55.5.64.87.09.36.04.75-.15,1.07-.19.32-.49.56-.85.66-.36.1-.74.06-1.07-.12l-3.98-2.3c-.07-.04-.15-.07-.23-.08s-.16,0-.24.02c-.08.02-.15.06-.22.11-.07.05-.12.11-.16.18s-.07.15-.08.23,0,.16.02.24c.02.08.06.15.11.22.05.07.11.12.18.16l3.97,2.29c.33.19.57.5.66.87.1.37.05.75-.14,1.08-.19.33-.5.57-.87.66s-.75.05-1.08-.14l-2.67-1.54c-.11-.07-.25-.09-.38-.08-.13.01-.25.07-.35.16-.26-.45-.67-.79-1.15-.99-.48-.2-1.01-.23-1.51-.09l-.1.03s-.02-.07-.03-.1c-.08-.3-.22-.58-.41-.83-.19-.25-.43-.45-.69-.61-.27-.16-.57-.26-.88-.3-.31-.04-.62-.02-.92.06-.03,0-.07.02-.1.03,0-.03-.02-.07-.02-.1-.08-.3-.22-.58-.41-.83-.19-.25-.43-.46-.7-.61-.27-.16-.57-.26-.88-.3-.31-.04-.62-.02-.92.06l-.1.03c-.1-.47-.35-.89-.7-1.22-.35-.33-.79-.54-1.26-.61-.47-.07-.96,0-1.39.2-.43.21-.79.54-1.03.95l-.03.05c-.41-.58-.87-1.12-1.38-1.61l5.43-9.41c1.8-.23,3.66.17,5.02.61-.06.13-.1.26-.14.4l-.86,3.22c-.02.08-.04.15-.06.22-.13.46-.24.86-.14,1.52.09.6.31,1.18.64,1.7.2.3.54.7,1.04.71h0c.53,0,.84-.43,1.08-.78.03-.04.06-.08.08-.12.52-.73,1-1.49,1.44-2.27.44-.76.9-1.54,1.19-1.61l.71-.17,8.09,4.67c.33.19.56.5.66.87.1.37.05.75-.14,1.08h0ZM32.2,25.41c-.09-.35-.24-.68-.46-.97-.22-.29-.49-.53-.8-.71l-8.31-4.8c-.14-.08-.3-.1-.46-.07l-.95.23c-.81.19-1.3,1.03-1.98,2.19-.42.75-.88,1.47-1.38,2.17-.03.04-.06.09-.09.13l-.07.1h0c-.23-.37-.38-.78-.44-1.2-.06-.39,0-.59.11-.99.02-.07.04-.15.06-.23l.86-3.22c.05-.2.15-.39.29-.55.01-.01.02-.03.04-.04.17-.19.39-.32.62-.4.09-.03.16-.05.22-.07.21-.06.42-.13.61-.23,2.3-1.06,5.74-1.34,7.72-1.29l5.3,9.18c-.26.19-.51.39-.75.61-.05.05-.1.09-.16.14h0ZM34.24,24.11l-5.21-9.02,3.75-2.17,5.21,9.02-3.75,2.17ZM16.36,12.24c.17,0,.32-.07.44-.18.12-.12.18-.28.18-.44v-4.19c0-.17-.07-.32-.18-.44-.12-.12-.28-.18-.44-.18h-4.19c-.17,0-.32.07-.44.18-.12.12-.18.28-.18.44v4.19c0,.17.07.32.18.44s.28.18.44.18h4.19ZM12.8,8.05h2.94v2.94h-2.94v-2.94ZM15.46,9.39l-.95,1.09c-.06.06-.13.12-.2.15-.08.04-.16.06-.25.06h-.02c-.08,0-.16-.02-.24-.05-.08-.03-.15-.08-.2-.14l-.49-.49c-.06-.06-.1-.13-.14-.2-.03-.08-.05-.16-.05-.24s.02-.16.05-.24c.03-.08.08-.14.14-.2.06-.06.13-.1.2-.14.08-.03.16-.05.24-.05.08,0,.16.02.24.05.08.03.14.08.2.14l.02.02.51-.59c.05-.06.12-.12.19-.15.07-.04.15-.06.24-.07.08,0,.17,0,.25.03.08.03.15.07.21.12.06.05.11.12.15.2.04.07.06.16.06.24,0,.08,0,.17-.03.24-.03.08-.07.15-.13.21h0ZM18.81,11.86c0-.17.07-.32.18-.44.12-.12.28-.18.44-.18h8.4c.17,0,.32.07.44.18.12.12.18.28.18.44s-.07.32-.18.44c-.12.12-.28.18-.44.18h-8.4c-.17,0-.32-.07-.44-.18-.12-.12-.18-.28-.18-.44h0ZM18.81,7.43c0-.17.07-.32.18-.44.12-.12.28-.18.44-.18h3.9c.17,0,.32.07.44.18.12.12.18.28.18.44s-.07.32-.18.44c-.12.12-.28.18-.44.18h-3.9c-.17,0-.32-.07-.44-.18-.12-.12-.18-.28-.18-.44h0ZM18.81,9.64c0-.17.07-.32.18-.44.12-.12.28-.18.44-.18h5.55c.17,0,.32.07.44.18.12.12.18.28.18.44s-.07.32-.18.44c-.12.12-.28.18-.44.18h-5.55c-.08,0-.16-.02-.24-.05-.08-.03-.15-.08-.2-.13-.06-.06-.1-.13-.14-.2-.03-.08-.05-.16-.05-.24h0Z"/>
  </g>
</svg>

