<svg width="178" height="40" viewBox="0 0 178 40" fill="none" xmlns="http://www.w3.org/2000/svg">
<path d="M62.2653 13.4114C62.1785 12.4565 61.7922 11.7143 61.1065 11.1848C60.4294 10.6466 59.4615 10.3775 58.2028 10.3775C57.3695 10.3775 56.675 10.486 56.1195 10.7031C55.5639 10.9201 55.1473 11.2196 54.8695 11.6015C54.5917 11.9748 54.4485 12.4044 54.4398 12.8906C54.4224 13.2899 54.5006 13.6414 54.6742 13.9453C54.8565 14.2491 55.1169 14.5182 55.4554 14.7525C55.8026 14.9782 56.2193 15.1779 56.7054 15.3515C57.1915 15.5251 57.7384 15.677 58.3461 15.8072L60.6377 16.3281C61.9572 16.6145 63.1204 16.9965 64.1273 17.4739C65.1429 17.9513 65.9936 18.5199 66.6794 19.1796C67.3739 19.8394 67.899 20.5989 68.2549 21.4583C68.6108 22.3177 68.7931 23.2812 68.8018 24.3489C68.7931 26.0329 68.3678 27.4783 67.5258 28.6849C66.6837 29.8915 65.4728 30.8159 63.8929 31.4583C62.3218 32.1007 60.4251 32.4219 58.2028 32.4219C55.9719 32.4219 54.0275 32.0877 52.3695 31.4192C50.7115 30.7508 49.4224 29.7352 48.5023 28.3724C47.5821 27.0095 47.109 25.2864 47.083 23.2031H53.2549C53.307 24.0625 53.537 24.7786 53.945 25.3515C54.353 25.9244 54.9129 26.3585 55.6247 26.6536C56.3452 26.9488 57.1785 27.0963 58.1247 27.0963C58.9928 27.0963 59.7306 26.9791 60.3382 26.7448C60.9546 26.5104 61.4277 26.1849 61.7575 25.7682C62.0874 25.3515 62.2567 24.8741 62.2653 24.3359C62.2567 23.8324 62.1004 23.4027 61.7966 23.0468C61.4928 22.6822 61.024 22.3697 60.3903 22.1093C59.7653 21.8402 58.9667 21.5928 57.9945 21.3671L55.208 20.7161C52.899 20.1866 51.0804 19.3315 49.7523 18.151C48.4242 16.9617 47.7644 15.3558 47.7731 13.3333C47.7644 11.684 48.2071 10.2386 49.1012 8.99732C49.9953 7.756 51.2323 6.78812 52.8122 6.09367C54.3921 5.39923 56.1933 5.052 58.2158 5.052C60.2818 5.052 62.0744 5.40356 63.5935 6.10669C65.1212 6.80114 66.3061 7.7777 67.1482 9.03639C67.9902 10.2951 68.4199 11.7534 68.4372 13.4114H62.2653Z" fill="white"/>
<path d="M80.293 32.4609C78.1923 32.4609 76.3867 32.0312 74.8763 31.1719C73.3746 30.3038 72.2157 29.0972 71.3997 27.552C70.5924 25.9982 70.1888 24.197 70.1888 22.1484C70.1888 20.0911 70.5924 18.2899 71.3997 16.7447C72.2157 15.1909 73.3746 13.9843 74.8763 13.1249C76.3867 12.2569 78.1923 11.8229 80.293 11.8229C82.3937 11.8229 84.1949 12.2569 85.6966 13.1249C87.2071 13.9843 88.3659 15.1909 89.1732 16.7447C89.9892 18.2899 90.3972 20.0911 90.3972 22.1484C90.3972 24.197 89.9892 25.9982 89.1732 27.552C88.3659 29.0972 87.2071 30.3038 85.6966 31.1719C84.1949 32.0312 82.3937 32.4609 80.293 32.4609ZM80.332 27.6562C81.0959 27.6562 81.7426 27.4218 82.2721 26.9531C82.8017 26.4843 83.2053 25.8333 83.4831 25C83.7695 24.1666 83.9128 23.2031 83.9128 22.1093C83.9128 20.9982 83.7695 20.026 83.4831 19.1927C83.2053 18.3593 82.8017 17.7083 82.2721 17.2395C81.7426 16.7708 81.0959 16.5364 80.332 16.5364C79.5421 16.5364 78.8737 16.7708 78.3268 17.2395C77.7886 17.7083 77.3763 18.3593 77.0898 19.1927C76.8121 20.026 76.6732 20.9982 76.6732 22.1093C76.6732 23.2031 76.8121 24.1666 77.0898 25C77.3763 25.8333 77.7886 26.4843 78.3268 26.9531C78.8737 27.4218 79.5421 27.6562 80.332 27.6562Z" fill="white"/>
<path d="M98.9261 5.41659V32.0833H92.5589V5.41659H98.9261Z" fill="white"/>
<path d="M107.517 32.4219C106.241 32.4219 105.108 32.2092 104.118 31.7838C103.138 31.3498 102.361 30.6988 101.788 29.8307C101.223 28.954 100.941 27.8559 100.941 26.5364C100.941 25.4253 101.137 24.4878 101.527 23.7239C101.918 22.96 102.456 22.3394 103.142 21.8619C103.828 21.3845 104.618 21.0243 105.512 20.7812C106.406 20.5295 107.361 20.3602 108.376 20.2734C109.513 20.1692 110.429 20.0607 111.124 19.9479C111.818 19.8263 112.322 19.6571 112.634 19.4401C112.955 19.2144 113.116 18.8975 113.116 18.4895V18.4244C113.116 17.756 112.886 17.2395 112.426 16.8749C111.966 16.5104 111.345 16.3281 110.564 16.3281C109.722 16.3281 109.045 16.5104 108.532 16.8749C108.02 17.2395 107.695 17.743 107.556 18.3854L101.684 18.177C101.857 16.9618 102.304 15.8767 103.025 14.9218C103.754 13.9583 104.752 13.2031 106.019 12.6562C107.296 12.1006 108.828 11.8229 110.616 11.8229C111.892 11.8229 113.068 11.9748 114.144 12.2786C115.221 12.5737 116.158 13.0077 116.957 13.5807C117.756 14.1449 118.372 14.8393 118.806 15.664C119.249 16.4887 119.47 17.4305 119.47 18.4895V32.0833H113.48V29.2968H113.324C112.968 29.9739 112.513 30.5468 111.957 31.0156C111.41 31.4843 110.763 31.8359 110.017 32.0703C109.279 32.3047 108.446 32.4219 107.517 32.4219ZM109.483 28.2552C110.169 28.2552 110.785 28.1163 111.332 27.8385C111.888 27.5607 112.33 27.1788 112.66 26.6927C112.99 26.1979 113.155 25.625 113.155 24.9739V23.0729C112.973 23.1684 112.751 23.2552 112.491 23.3333C112.239 23.4114 111.961 23.4852 111.657 23.5546C111.354 23.6241 111.041 23.6849 110.72 23.7369C110.399 23.789 110.091 23.8368 109.796 23.8802C109.197 23.9757 108.684 24.1232 108.259 24.3229C107.842 24.5225 107.521 24.7829 107.296 25.1041C107.078 25.4166 106.97 25.7899 106.97 26.2239C106.97 26.8836 107.204 27.3871 107.673 27.7343C108.151 28.0816 108.754 28.2552 109.483 28.2552Z" fill="white"/>
<path d="M122.263 32.0833V12.0833H128.448V15.7291H128.656C129.021 14.4097 129.616 13.4288 130.44 12.7864C131.265 12.1354 132.224 11.8098 133.318 11.8098C133.613 11.8098 133.917 11.8315 134.229 11.8749C134.542 11.9097 134.833 11.9661 135.102 12.0442V17.5781C134.798 17.4739 134.399 17.3914 133.904 17.3307C133.418 17.2699 132.984 17.2395 132.602 17.2395C131.847 17.2395 131.165 17.4088 130.558 17.7473C129.959 18.0772 129.485 18.5416 129.138 19.1406C128.8 19.7309 128.63 20.4253 128.63 21.2239V32.0833H122.263Z" fill="white"/>
<path d="M144.881 40C142.98 40 141.352 39.7352 139.998 39.2057C138.644 38.6762 137.58 37.9514 136.808 37.0312C136.035 36.1111 135.571 35.0694 135.415 33.9062L141.443 33.5677C141.556 33.9757 141.764 34.3316 142.068 34.6354C142.381 34.9392 142.784 35.1736 143.279 35.3385C143.783 35.5035 144.373 35.5859 145.05 35.5859C146.118 35.5859 146.999 35.3255 147.693 34.8047C148.396 34.2925 148.748 33.3941 148.748 32.1094V28.5937H148.527C148.275 29.21 147.893 29.7613 147.381 30.2474C146.869 30.7335 146.231 31.1154 145.467 31.3932C144.711 31.671 143.843 31.8099 142.863 31.8099C141.404 31.8099 140.067 31.4713 138.852 30.7942C137.645 30.1085 136.678 29.0494 135.948 27.6172C135.228 26.1762 134.868 24.3229 134.868 22.0572C134.868 19.7222 135.241 17.7994 135.987 16.289C136.734 14.7699 137.711 13.6458 138.917 12.9166C140.132 12.1874 141.439 11.8229 142.836 11.8229C143.887 11.8229 144.785 12.0051 145.532 12.3697C146.287 12.7256 146.908 13.1857 147.394 13.7499C147.88 14.3142 148.249 14.9001 148.501 15.5078H148.683V12.0833H155.024V32.1614C155.024 33.8541 154.599 35.2821 153.748 36.4453C152.897 37.6085 151.708 38.4896 150.18 39.0885C148.652 39.6962 146.886 40 144.881 40ZM145.076 27.1744C145.849 27.1744 146.508 26.9705 147.055 26.5625C147.602 26.1545 148.023 25.5685 148.318 24.8046C148.613 24.0408 148.761 23.125 148.761 22.0572C148.761 20.9722 148.613 20.039 148.318 19.2578C148.032 18.4678 147.611 17.8602 147.055 17.4348C146.508 17.0095 145.849 16.7968 145.076 16.7968C144.286 16.7968 143.618 17.0138 143.071 17.4479C142.524 17.8819 142.107 18.4939 141.821 19.2838C141.543 20.0651 141.404 20.9895 141.404 22.0572C141.404 23.125 141.547 24.0408 141.834 24.8046C142.12 25.5685 142.533 26.1545 143.071 26.5625C143.618 26.9705 144.286 27.1744 145.076 27.1744Z" fill="white"/>
<path d="M167.319 32.4609C165.219 32.4609 163.413 32.0312 161.903 31.1719C160.401 30.3038 159.242 29.0972 158.426 27.552C157.619 25.9982 157.215 24.197 157.215 22.1484C157.215 20.0911 157.619 18.2899 158.426 16.7447C159.242 15.1909 160.401 13.9843 161.903 13.1249C163.413 12.2569 165.219 11.8229 167.319 11.8229C169.42 11.8229 171.221 12.2569 172.723 13.1249C174.233 13.9843 175.392 15.1909 176.199 16.7447C177.015 18.2899 177.423 20.0911 177.423 22.1484C177.423 24.197 177.015 25.9982 176.199 27.552C175.392 29.0972 174.233 30.3038 172.723 31.1719C171.221 32.0312 169.42 32.4609 167.319 32.4609ZM167.358 27.6562C168.122 27.6562 168.769 27.4218 169.298 26.9531C169.828 26.4843 170.232 25.8333 170.509 25C170.796 24.1666 170.939 23.2031 170.939 22.1093C170.939 20.9982 170.796 20.026 170.509 19.1927C170.232 18.3593 169.828 17.7083 169.298 17.2395C168.769 16.7708 168.122 16.5364 167.358 16.5364C166.568 16.5364 165.9 16.7708 165.353 17.2395C164.815 17.7083 164.403 18.3593 164.116 19.1927C163.838 20.026 163.699 20.9982 163.699 22.1093C163.699 23.2031 163.838 24.1666 164.116 25C164.403 25.8333 164.815 26.4843 165.353 26.9531C165.9 27.4218 166.568 27.6562 167.358 27.6562Z" fill="white"/>
<path d="M19.0976 33.1018C18.746 33.1018 18.4609 33.3869 18.4609 33.7382V37.5577C18.4609 37.909 18.746 38.1943 19.0976 38.1943C19.4491 38.1943 19.7342 37.909 19.7342 37.5577V33.7382C19.7342 33.3869 19.4491 33.1018 19.0976 33.1018Z" fill="white"/>
<path d="M19.0976 5.09253C19.4491 5.09253 19.7342 4.80742 19.7342 4.45611V0.636653C19.7342 0.28534 19.4491 0 19.0976 0C18.746 0 18.4609 0.28534 18.4609 0.636653V4.45611C18.4609 4.80742 18.746 5.09253 19.0976 5.09253Z" fill="white"/>
<path d="M4.45611 18.4604H0.636653C0.28534 18.4604 0 18.7456 0 19.0971C0 19.4486 0.28534 19.7338 0.636653 19.7338H4.45611C4.80742 19.7338 5.09253 19.4486 5.09253 19.0971C5.09253 18.7456 4.80742 18.4604 4.45611 18.4604Z" fill="white"/>
<path d="M37.5574 18.4604H33.738C33.3867 18.4604 33.1016 18.7456 33.1016 19.0971C33.1016 19.4486 33.3867 19.7338 33.738 19.7338H37.5574C37.9087 19.7338 38.1941 19.4486 38.1941 19.0971C38.1941 18.7456 37.9087 18.4604 37.5574 18.4604Z" fill="white"/>
<path d="M19.8718 18.857C19.7515 18.7057 19.7063 18.5071 19.7494 18.3173L21.0836 12.5371L15.3984 19.0971H17.8238C18.0178 19.0971 18.2012 19.1857 18.322 19.3372C18.443 19.4885 18.4875 19.6872 18.4444 19.8769L17.1102 25.6572L22.7954 19.0971H20.37C20.176 19.0971 19.9926 19.0085 19.8718 18.857Z" fill="white"/>
<path d="M19.0969 6.36548C12.0767 6.36548 6.36523 12.0769 6.36523 19.0971C6.36523 26.1173 12.0767 31.8288 19.0969 31.8288C26.1171 31.8288 31.8286 26.1173 31.8286 19.0971C31.8286 12.0769 26.1171 6.36548 19.0969 6.36548ZM24.6708 18.8775L16.3953 28.4262C16.2712 28.5693 16.0943 28.6458 15.9139 28.6458C15.8167 28.6458 15.7171 28.6236 15.6257 28.577C15.3646 28.4448 15.2276 28.1513 15.2942 27.866L17.0235 20.3702H14.0044C13.7547 20.3702 13.5288 20.2245 13.4251 19.9984C13.3213 19.772 13.3596 19.5056 13.523 19.3174L21.7985 9.76881C21.9902 9.54734 22.3079 9.48557 22.5681 9.61798C22.8292 9.75016 22.9662 10.0439 22.8996 10.329L21.1696 17.8245H24.1887C24.4382 17.8245 24.6643 17.9702 24.7683 18.1964C24.8718 18.4232 24.8338 18.6892 24.6708 18.8775Z" fill="white"/>
<path d="M29.8995 29.0005C29.6503 28.7518 29.2481 28.7518 28.9994 29.0005C28.7502 29.2495 28.7502 29.6519 28.9994 29.9006L31.6994 32.6011C31.8237 32.7251 31.9868 32.7876 32.1496 32.7876C32.3125 32.7876 32.4755 32.7251 32.5995 32.6011C32.8485 32.3521 32.8485 31.9497 32.5995 31.701L29.8995 29.0005Z" fill="white"/>
<path d="M8.29489 9.19402C8.41891 9.31804 8.5821 9.38052 8.74505 9.38052C8.908 9.38052 9.07095 9.31804 9.19497 9.19402C9.44418 8.94505 9.44418 8.54268 9.19497 8.29394L6.49404 5.59347C6.2453 5.3445 5.84223 5.3445 5.59396 5.59347C5.34498 5.84244 5.34498 6.24481 5.59396 6.49355L8.29489 9.19402Z" fill="white"/>
<path d="M8.29489 29.0005L5.59396 31.701C5.34498 31.9497 5.34498 32.3521 5.59396 32.6011C5.71798 32.7251 5.88116 32.7876 6.04411 32.7876C6.20706 32.7876 6.36978 32.7251 6.49404 32.6011L9.19497 29.9006C9.44418 29.6519 9.44418 29.2495 9.19497 29.0005C8.94623 28.7518 8.54317 28.7518 8.29489 29.0005Z" fill="white"/>
<path d="M31.7005 5.59347L29 8.29394C28.7513 8.54268 28.7513 8.94505 29 9.19402C29.1243 9.31804 29.287 9.38052 29.45 9.38052C29.6129 9.38052 29.7761 9.31804 29.9001 9.19402L32.6006 6.49355C32.8496 6.24481 32.8496 5.84244 32.6006 5.59347C32.3516 5.3445 31.9488 5.3445 31.7005 5.59347Z" fill="white"/>
</svg>
